<svg class="system-shapshot-heading-svg" focusable="false" version="1.1" xmlns="http://www.w3.org/2000/svg" xmlns:xlink="http://www.w3.org/1999/xlink" aria-hidden="true">
    <use xlink:href="#icon-bus">
        <svg id="icon-bus" viewBox="0 0 22 22">
            <title>Bus Icon</title>
            <path d="M19.1,3.3c-0.2-1.2-1-1.7-2.2-2.2c-1.1-0.5-3.9-1-5.9-1.1c-2,0-4.7,0.6-5.9,1.1C4,1.6,3.2,2.1,2.9,3.3L2.1,10
            v9.2h1.5v1.4c0,1.8,2.6,1.8,2.6,0v-1.4h4.8h0h4.9v1.4c0,1.8,2.6,1.8,2.6,0v-1.4h1.5V10L19.1,3.3z M7.3,1.7h3.6h3.8
            c0.7,0,0.7,1.1,0,1.1h-3.8H7.3C6.6,2.8,6.6,1.7,7.3,1.7z M4.9,16.3c-0.7,0-1.2-0.6-1.2-1.2c0-0.7,0.6-1.2,1.2-1.2
            c0.7,0,1.2,0.6,1.2,1.2C6.1,15.7,5.5,16.3,4.9,16.3z M10.9,10.7H4.4c-0.6,0-0.8-0.5-0.7-0.9l0.7-4.8c0.1-0.6,0.3-1,1.1-1h5.5h5.7
            c0.8,0,1,0.4,1.1,1l0.7,4.8c0.1,0.5-0.1,0.9-0.7,0.9H10.9z M17.1,16.3c-0.7,0-1.2-0.6-1.2-1.2c0-0.7,0.6-1.2,1.2-1.2
            c0.7,0,1.2,0.6,1.2,1.2C18.4,15.7,17.8,16.3,17.1,16.3z"></path>
        </svg>
    </use>
</svg>