<svg class="system-shapshot-heading-svg" focusable="false" version="1.1" xmlns="http://www.w3.org/2000/svg" xmlns:xlink="http://www.w3.org/1999/xlink" aria-hidden="true">        
    <use xlink:href="#icon-train">
        <svg id="icon-train" viewBox="0 0 20 20">
            <title>Train</title>
            <path d="M4,13.4l0,0.1l0.1,0.1l0.1,0.1l0.1,0.1l0.1,0.1L4.6,14L4.7,14L5,14.1l0.3,0.1l0.3,0l0.1,0l0.1,0l0.1,0v-2.1
            h0.6h0.8H10h0.1H13h0.8h0.4v2.1l0.1,0l0.1,0h0h0.1l0.1,0l0.3-0.1l0.3-0.1l0.1-0.1l0.1-0.1l0.1-0.1l0.1-0.1l0.1-0.1l0.1-0.1l0-0.1
            l0-0.1l0.6-5.9l-0.6-5.2l0-0.2L16,1.8l-0.1-0.2l-0.1-0.2l-0.1-0.2l-0.2-0.2l-0.2-0.1l-0.2-0.1l-0.3-0.1l-0.3-0.1l0,0l-0.3-0.1
            l-0.3-0.1l0,0l-0.6-0.1l-0.2,0l-0.4-0.1l-0.6-0.1l-0.6,0l-1.2,0L10,0L8.7,0l-0.6,0L7.5,0.1l-0.3,0l-0.3,0L6.5,0.3l-0.1,0l-0.2,0
            L5.9,0.5L5.6,0.5l-0.1,0L5.3,0.7L5,0.8L4.7,0.9L4.5,1.1L4.4,1.2L4.2,1.4L4.1,1.6L4,1.8L4,2l0,0.2L3.4,7.4L4,13.2L4,13.4z M13.6,10
            l0,0.1l-0.1,0.1l-0.1,0.1l-0.1,0.1l-0.1,0.1l-0.1,0l-0.1,0l-0.1,0l-0.1,0l-0.1-0.1l-0.1-0.1l-0.1-0.1l-0.1-0.1l0-0.1l0-0.1l0-0.1
            l0-0.1l0.1-0.1l0.1-0.1l0.1-0.1l0.1-0.1l0.1,0l0.1,0l0.1,0l0.1,0l0.1,0.1l0.1,0.1l0.1,0.1l0.1,0.1l0,0.1l0,0.1L13.6,10z M15.1,10
            l0,0.1L15,10.2l-0.1,0.1l-0.1,0.1l-0.1,0.1l-0.1,0l-0.1,0h0l-0.1,0l-0.1,0l-0.1-0.1L14,10.3L14,10.2l-0.1-0.1l0-0.1l0-0.1l0-0.1
            l0-0.1L14,9.5L14,9.4l0.1-0.1l0.1-0.1l0.1,0l0.1,0h0l0.1,0l0.1,0l0.1,0.1l0.1,0.1L15,9.5l0.1,0.1l0,0.1l0,0.1L15.1,10z M11.9,2.4
            L11.9,2.4l0-0.2l0-0.1l0.1-0.1L12.1,2L12.2,2l0.1,0l0.1,0H13h0.8h0.7h0.2l0.1,0l0.1,0l0.1,0L15,2.1l0.1,0.1l0.1,0.1l0,0.1l0.5,4.8
            l0,0.2l0,0.1l-0.1,0.1l-0.1,0.1l-0.1,0l-0.1,0l-0.1,0h-0.7h-0.7H13h-0.6l-0.1,0l-0.1-0.1l-0.1-0.1l-0.1-0.1L12,7.3l0-0.1V2.4z
            M8.7,1.5h1.4h1.4v9.2h-1.4H8.7V1.5z M6.3,10l0,0.1l-0.1,0.1l-0.1,0.1L6,10.4l-0.1,0.1l-0.1,0l-0.1,0h0l-0.1,0l-0.1,0l-0.1-0.1
            l-0.1-0.1l-0.1-0.1l-0.1-0.1L5,10l0-0.1l0-0.1l0-0.1l0.1-0.1l0.1-0.1l0.1-0.1l0.1-0.1l0.1,0l0.1,0h0l0.1,0l0.1,0L6,9.3l0.1,0.1
            l0.1,0.1l0.1,0.1l0,0.1l0,0.1L6.3,10z M7.7,10l0,0.1l-0.1,0.1l-0.1,0.1l-0.1,0.1l-0.1,0.1l-0.1,0l-0.1,0l-0.1,0l-0.1,0l-0.1-0.1
            l-0.1-0.1l-0.1-0.1l-0.1-0.1l0-0.1l0-0.1l0-0.1l0-0.1l0.1-0.1l0.1-0.1l0.1-0.1l0.1-0.1l0.1,0l0.1,0l0.1,0l0.1,0l0.1,0.1l0.1,0.1
            l0.1,0.1l0.1,0.1l0,0.1l0,0.1L7.7,10z M4.5,7.1l0.5-4.6l0-0.2l0.1-0.1L5.2,2L5.3,2l0.1,0l0,0l0,0h0.2h0.7h0.8h0.6l0.1,0l0.1,0L8,2
            L8,2l0.1,0.1l0.1,0.1l0,0.1l0,0.1v4.9l0,0.1l0,0.1L8.1,7.5l0,0.1L8,7.6l-0.1,0L7.7,7.7H7.1H6.4H5.6H5.1L5,7.7l-0.1,0l-0.1,0
            L4.7,7.5L4.6,7.4L4.6,7.3l0-0.1L4.5,7.1z"></path>
            <rect x="7.4" y="13.7" width="5.3" height="0.8"></rect>
            <path d="M15.8,18.2L15,17.3h1.6l-0.8-0.9h-1.5l-0.4-0.5H13l0.3,0.5h-3.3H6.8l0.3-0.5l-0.8,0l-0.4,0.5H4.2l-0.8,0.9h1.8
            l-0.7,0.8H2.6l-1.1,1.3l1.8,0L2.8,20h1.8L5,19.4l5.1,0l5.1,0l0.4,0.6h1.9l-0.5-0.6h1.6l-1.2-1.2H15.8z M10.1,18.2H5.7l0.5-0.8
            l3.8,0l3.8,0l0.5,0.8H10.1z"></path>
            <rect x="6.3" y="12.4" width="0.7" height="3.4"></rect>
            <rect x="13" y="12.4" width="0.7" height="3.4"></rect>
        </svg>
    </use>
</svg>